<svg width="1129" height="189" viewBox="0 0 1129 189" fill="none" xmlns="http://www.w3.org/2000/svg">
<path opacity="0.1" d="M0.5 10.8C0.5 7.55999 1.49 4.94999 3.47 2.97C5.45 0.98999 8.06 -1.28746e-05 11.3 -1.28746e-05H143.87C152.87 -1.28746e-05 160.97 1.43999 168.17 4.32C175.55 7.19999 181.76 11.25 186.8 16.47C192.02 21.51 196.07 27.72 198.95 35.1C201.83 42.3 203.27 50.4 203.27 59.4V129.6C203.27 138.42 201.83 146.52 198.95 153.9C196.07 161.28 192.02 167.58 186.8 172.8C181.76 177.84 175.55 181.8 168.17 184.68C160.97 187.56 152.87 189 143.87 189H11.3C8.06 189 5.45 188.01 3.47 186.03C1.49 184.05 0.5 181.44 0.5 178.2V10.8ZM46.4 151.2H130.37C138.47 151.2 144.95 148.77 149.81 143.91C154.85 138.87 157.37 132.3 157.37 124.2V64.8C157.37 56.7 154.85 50.22 149.81 45.36C144.95 40.32 138.47 37.8 130.37 37.8H46.4V151.2ZM227.521 10.8C227.521 7.55999 228.511 4.94999 230.491 2.97C232.471 0.98999 235.081 -1.28746e-05 238.321 -1.28746e-05H385.741C388.981 -1.28746e-05 391.591 0.98999 393.571 2.97C395.551 4.94999 396.542 7.55999 396.542 10.8V27C396.542 30.24 395.551 32.85 393.571 34.83C391.591 36.81 388.981 37.8 385.741 37.8H273.421V75.6H354.961C358.201 75.6 360.811 76.59 362.791 78.57C364.771 80.55 365.761 83.16 365.761 86.4V102.6C365.761 105.84 364.771 108.45 362.791 110.43C360.811 112.41 358.201 113.4 354.961 113.4H273.421V151.2H391.141C394.381 151.2 396.991 152.19 398.972 154.17C400.951 156.15 401.941 158.76 401.941 162V178.2C401.941 181.44 400.951 184.05 398.972 186.03C396.991 188.01 394.381 189 391.141 189H238.321C235.081 189 232.471 188.01 230.491 186.03C228.511 184.05 227.521 181.44 227.521 178.2V10.8ZM575.503 56.16C569.743 56.16 565.783 52.56 563.623 45.36C562.723 42.48 561.193 40.5 559.033 39.42C557.053 38.34 553.993 37.8 549.853 37.8H487.483C479.563 37.8 473.173 39.51 468.313 42.93C463.633 46.17 461.293 50.58 461.293 56.16C461.293 61.74 463.723 66.42 468.583 70.2C473.623 73.8 480.193 75.6 488.293 75.6H550.933C559.933 75.6 568.033 76.95 575.233 79.65C582.613 82.17 588.913 85.77 594.133 90.45C599.353 94.95 603.403 100.44 606.283 106.92C609.163 113.4 610.603 120.51 610.603 128.25V137.43C610.603 145.17 609.163 152.28 606.283 158.76C603.583 165.06 599.623 170.46 594.403 174.96C589.363 179.46 583.243 182.97 576.043 185.49C568.843 187.83 560.833 189 552.013 189H475.063C465.163 189 456.613 188.28 449.413 186.84C442.213 185.4 436.183 182.97 431.323 179.55C426.643 175.95 423.043 171.27 420.523 165.51C418.003 159.57 416.383 152.28 415.663 143.64C415.303 140.58 416.113 138.06 418.093 136.08C420.253 133.92 422.953 132.84 426.193 132.84H447.793C453.553 132.84 457.513 136.44 459.673 143.64C460.573 146.52 462.013 148.5 463.993 149.58C466.153 150.66 469.303 151.2 473.443 151.2H538.513C546.433 151.2 552.733 149.58 557.413 146.34C562.273 142.92 564.703 138.42 564.703 132.84C564.703 127.26 562.183 122.67 557.143 119.07C552.283 115.29 545.803 113.4 537.703 113.4H475.063C466.243 113.4 458.143 112.14 450.763 109.62C443.383 106.92 437.083 103.32 431.863 98.82C426.643 94.14 422.593 88.56 419.713 82.08C416.833 75.6 415.393 68.49 415.393 60.75V51.57C415.393 43.83 416.743 36.81 419.443 30.51C422.323 24.03 426.283 18.54 431.323 14.04C436.543 9.53999 442.753 6.11999 449.953 3.77999C457.153 1.25999 465.163 -1.28746e-05 473.983 -1.28746e-05H548.233C558.313 -1.28746e-05 566.863 0.719989 573.883 2.15999C581.083 3.59999 587.023 6.11999 591.703 9.71999C596.563 13.14 600.253 17.82 602.773 23.76C605.293 29.52 606.913 36.72 607.633 45.36C607.993 48.42 607.093 51.03 604.933 53.19C602.953 55.17 600.343 56.16 597.103 56.16H575.503ZM632.258 10.8C632.258 7.55999 633.248 4.94999 635.228 2.97C637.208 0.98999 639.818 -1.28746e-05 643.058 -1.28746e-05H667.358C670.598 -1.28746e-05 673.208 0.98999 675.188 2.97C677.168 4.94999 678.158 7.55999 678.158 10.8V178.2C678.158 181.44 677.168 184.05 675.188 186.03C673.208 188.01 670.598 189 667.358 189H643.058C639.818 189 637.208 188.01 635.228 186.03C633.248 184.05 632.258 181.44 632.258 178.2V10.8ZM912.931 127.71C912.931 137.07 911.491 145.53 908.611 153.09C905.731 160.65 901.681 167.13 896.461 172.53C891.421 177.75 885.211 181.8 877.831 184.68C870.631 187.56 862.531 189 853.531 189H762.001C753.181 189 745.081 187.56 737.701 184.68C730.321 181.8 724.021 177.84 718.801 172.8C713.581 167.58 709.531 161.28 706.651 153.9C703.771 146.52 702.331 138.42 702.331 129.6V59.4C702.331 50.4 703.771 42.3 706.651 35.1C709.531 27.72 713.581 21.51 718.801 16.47C724.021 11.25 730.321 7.19999 737.701 4.32C745.081 1.43999 753.181 -1.28746e-05 762.001 -1.28746e-05H842.731C852.811 -1.28746e-05 861.361 0.719989 868.381 2.15999C875.581 3.59999 881.521 6.11999 886.201 9.71999C891.061 13.14 894.751 17.82 897.271 23.76C899.791 29.52 901.411 36.72 902.131 45.36C902.491 48.42 901.591 51.03 899.431 53.19C897.451 55.17 894.841 56.16 891.601 56.16H870.001C864.241 56.16 860.281 52.56 858.121 45.36C857.221 42.48 855.691 40.5 853.531 39.42C851.551 38.34 848.491 37.8 844.351 37.8H775.231C767.131 37.8 760.561 40.32 755.521 45.36C750.661 50.22 748.231 56.7 748.231 64.8V124.2C748.231 132.3 750.661 138.87 755.521 143.91C760.561 148.77 767.131 151.2 775.231 151.2H840.031C848.131 151.2 854.611 148.77 859.471 143.91C864.511 138.87 867.031 132.3 867.031 124.2V115.56H802.501C799.261 115.56 796.651 114.57 794.671 112.59C792.691 110.61 791.701 108 791.701 104.76V88.56C791.701 85.32 792.691 82.71 794.671 80.73C796.651 78.75 799.261 77.76 802.501 77.76H902.131C905.371 77.76 907.981 78.75 909.961 80.73C911.941 82.71 912.931 85.32 912.931 88.56V127.71ZM983.226 68.85V178.2C983.226 181.44 982.236 184.05 980.256 186.03C978.276 188.01 975.666 189 972.426 189H948.126C944.886 189 942.276 188.01 940.296 186.03C938.316 184.05 937.326 181.44 937.326 178.2V10.8C937.326 7.55999 938.316 4.94999 940.296 2.97C942.276 0.98999 944.886 -1.28746e-05 948.126 -1.28746e-05H972.426C975.666 -1.28746e-05 978.996 0.719989 982.416 2.15999C985.836 3.59999 988.536 5.58 990.516 8.1L1082.59 120.15V10.8C1082.59 7.55999 1083.58 4.94999 1085.56 2.97C1087.54 0.98999 1090.15 -1.28746e-05 1093.39 -1.28746e-05H1117.69C1120.93 -1.28746e-05 1123.54 0.98999 1125.52 2.97C1127.5 4.94999 1128.49 7.55999 1128.49 10.8V178.2C1128.49 181.44 1127.5 184.05 1125.52 186.03C1123.54 188.01 1120.93 189 1117.69 189H1093.39C1090.15 189 1086.82 188.28 1083.4 186.84C1079.98 185.4 1077.28 183.42 1075.3 180.9L983.226 68.85Z" fill="#070707"/>
</svg>
