<svg width="919" height="189" viewBox="0 0 919 189" fill="none" xmlns="http://www.w3.org/2000/svg">
<path opacity="0.1" d="M0.900391 10.8C0.900391 7.55999 1.89039 4.94999 3.87039 2.97C5.85039 0.98999 8.46039 -1.28746e-05 11.7004 -1.28746e-05H135.36C151.74 -1.28746e-05 164.88 4.76999 174.78 14.31C184.68 23.85 189.63 37.08 189.63 54C189.63 60.84 188.37 66.96 185.85 72.36C183.33 77.58 180 82.26 175.86 86.4C183.96 90.9 190.62 96.84 195.84 104.22C201.06 111.6 203.67 120.78 203.67 131.76C203.67 149.94 198 164.07 186.66 174.15C175.5 184.05 158.4 189 135.36 189H11.7004C8.46039 189 5.85039 188.01 3.87039 186.03C1.89039 184.05 0.900391 181.44 0.900391 178.2V10.8ZM46.8004 73.44H107.82C118.98 73.44 127.71 71.82 134.01 68.58C140.49 65.16 143.73 60.39 143.73 54.27C143.73 49.59 141.57 45.72 137.25 42.66C132.93 39.42 127.26 37.8 120.24 37.8H46.8004V73.44ZM46.8004 151.2H130.77C138.87 151.2 145.35 149.4 150.21 145.8C155.25 142.02 157.77 137.16 157.77 131.22C157.77 125.28 155.25 120.51 150.21 116.91C145.35 113.13 138.87 111.24 130.77 111.24H46.8004V151.2ZM225.285 10.8C225.285 7.55999 226.275 4.94999 228.255 2.97C230.235 0.98999 232.845 -1.28746e-05 236.085 -1.28746e-05H260.385C263.625 -1.28746e-05 266.235 0.98999 268.215 2.97C270.195 4.94999 271.185 7.55999 271.185 10.8V178.2C271.185 181.44 270.195 184.05 268.215 186.03C266.235 188.01 263.625 189 260.385 189H236.085C232.845 189 230.235 188.01 228.255 186.03C226.275 184.05 225.285 181.44 225.285 178.2V10.8ZM298.059 10.8C298.059 7.55999 299.049 4.94999 301.029 2.97C303.009 0.98999 305.619 -1.28746e-05 308.859 -1.28746e-05H441.429C450.429 -1.28746e-05 458.529 1.43999 465.729 4.32C473.109 7.19999 479.319 11.25 484.359 16.47C489.579 21.51 493.629 27.72 496.509 35.1C499.389 42.3 500.829 50.4 500.829 59.4V129.6C500.829 138.42 499.389 146.52 496.509 153.9C493.629 161.28 489.579 167.58 484.359 172.8C479.319 177.84 473.109 181.8 465.729 184.68C458.529 187.56 450.429 189 441.429 189H308.859C305.619 189 303.009 188.01 301.029 186.03C299.049 184.05 298.059 181.44 298.059 178.2V10.8ZM343.959 151.2H427.929C436.029 151.2 442.509 148.77 447.369 143.91C452.409 138.87 454.929 132.3 454.929 124.2V64.8C454.929 56.7 452.409 50.22 447.369 45.36C442.509 40.32 436.029 37.8 427.929 37.8H343.959V151.2ZM525.08 10.8C525.08 7.55999 526.07 4.94999 528.05 2.97C530.03 0.98999 532.64 -1.28746e-05 535.88 -1.28746e-05H683.3C686.54 -1.28746e-05 689.15 0.98999 691.13 2.97C693.11 4.94999 694.1 7.55999 694.1 10.8V27C694.1 30.24 693.11 32.85 691.13 34.83C689.15 36.81 686.54 37.8 683.3 37.8H570.98V75.6H652.52C655.76 75.6 658.37 76.59 660.35 78.57C662.33 80.55 663.32 83.16 663.32 86.4V102.6C663.32 105.84 662.33 108.45 660.35 110.43C658.37 112.41 655.76 113.4 652.52 113.4H570.98V151.2H688.7C691.94 151.2 694.55 152.19 696.53 154.17C698.51 156.15 699.5 158.76 699.5 162V178.2C699.5 181.44 698.51 184.05 696.53 186.03C694.55 188.01 691.94 189 688.7 189H535.88C532.64 189 530.03 188.01 528.05 186.03C526.07 184.05 525.08 181.44 525.08 178.2V10.8ZM775.322 189C766.502 189 758.402 187.56 751.022 184.68C743.642 181.8 737.342 177.84 732.122 172.8C726.902 167.58 722.852 161.28 719.972 153.9C717.092 146.52 715.652 138.42 715.652 129.6V59.4C715.652 50.4 717.092 42.3 719.972 35.1C722.852 27.72 726.902 21.51 732.122 16.47C737.342 11.25 743.642 7.19999 751.022 4.32C758.402 1.43999 766.502 -1.28746e-05 775.322 -1.28746e-05H856.052C866.132 -1.28746e-05 874.682 0.719989 881.702 2.15999C888.902 3.59999 894.842 6.11999 899.522 9.71999C904.382 13.14 908.072 17.82 910.592 23.76C913.112 29.52 914.732 36.72 915.452 45.36C915.812 48.42 914.912 51.03 912.752 53.19C910.772 55.17 908.162 56.16 904.922 56.16H883.322C877.562 56.16 873.602 52.56 871.442 45.36C870.542 42.48 869.012 40.5 866.852 39.42C864.872 38.34 861.812 37.8 857.672 37.8H788.552C780.452 37.8 773.882 40.32 768.842 45.36C763.982 50.22 761.552 56.7 761.552 64.8V124.2C761.552 132.3 763.982 138.87 768.842 143.91C773.882 148.77 780.452 151.2 788.552 151.2H860.372C864.512 151.2 867.572 150.66 869.552 149.58C871.712 148.5 873.242 146.52 874.142 143.64C876.302 136.44 880.262 132.84 886.022 132.84H907.622C910.862 132.84 913.472 133.92 915.452 136.08C917.612 138.06 918.512 140.58 918.152 143.64C917.432 152.28 915.812 159.57 913.292 165.51C910.772 171.27 907.082 175.95 902.222 179.55C897.542 182.97 891.602 185.4 884.402 186.84C877.382 188.28 868.832 189 858.752 189H775.322Z" fill="#070707"/>
</svg>
